<svg xmlns="http://www.w3.org/2000/svg" viewBox="0 0 50 50" width="32" height="32">
<path fill="currentColor" d="M 24.85 3.29 Q 24.91 3.29 24.97 3.31 A 0.33 0.32 80.1 0 1 25.16 3.45 L 47.91 42.42 A 0.64 0.63 55.6 0 1 47.76 43.23 L 41.69 48.05 A 0.63 0.62 42.2 0 1 40.96 48.08 L 28.99 39.94 A 0.27 0.27 0.0 0 1 29.14 39.45 L 35.54 39.45 A 0.20 0.20 0.0 0 0 35.72 39.15 Q 33.49 35.30 25.09 20.45 Q 25.04 20.37 24.85 20.37 Q 24.66 20.37 24.62 20.45 Q 16.22 35.30 13.99 39.15 A 0.20 0.20 0.0 0 0 14.17 39.45 L 20.57 39.45 A 0.27 0.27 0.0 0 1 20.72 39.94 L 8.75 48.09 A 0.63 0.62 -42.2 0 1 8.02 48.06 L 1.95 43.24 A 0.64 0.63 -55.6 0 1 1.80 42.43 L 24.54 3.45 A 0.33 0.32 -80.1 0 1 24.73 3.31 Q 24.79 3.29 24.85 3.29 Z"/>
</svg>
