<svg width="32" height="32" viewBox="0 0 32 32" fill="none" xmlns="http://www.w3.org/2000/svg">
<g clip-path="url(#clip0_cs2)">
<path d="M14.0592 0.578748C14.3557 0.319029 14.7131 0.138576 15.0981 0.0541778C15.483 -0.0302205 15.8831 -0.0158207 16.261 0.0960371C16.5515 0.192047 16.8021 0.366728 17.0726 0.540077C17.2859 0.674756 17.5364 0.733428 17.7297 0.88811C17.8256 0.965449 17.7483 1.10146 17.7483 1.19747C18.0002 1.79752 18.1349 2.45359 17.9216 3.09098C17.7483 3.30432 17.4391 3.36167 17.1886 3.45901C17.1486 3.7297 17.2459 3.97906 17.2845 4.25108C17.2272 4.28975 17.1886 4.32842 17.1299 4.36709C17.4978 4.34709 17.8643 4.26975 18.2321 4.19375C18.3668 4.05773 18.5787 4.13508 18.7519 4.11507C18.7719 3.84437 18.8692 3.59368 18.8692 3.32299C18.9226 3.31935 18.975 3.30626 19.0238 3.28432C19.0425 3.47768 19.0238 3.67103 19.0811 3.86437C19.1784 3.94171 19.333 3.90304 19.449 3.92171C19.449 3.99906 19.449 4.0764 19.4676 4.15373C21.7079 4.13508 23.9684 4.15373 26.2087 4.15373V4.48311H26.422V3.22565H26.6726C26.6726 3.57235 26.6539 3.90171 26.6726 4.24975C26.6991 4.27418 26.7339 4.28794 26.7699 4.28842C26.7699 4.32709 26.7886 4.40442 26.7886 4.44309C26.8659 4.36576 26.9619 4.30709 27.0791 4.34575C27.0977 4.40442 27.1177 4.46176 27.1364 4.53911C27.0591 4.61645 27.0204 4.71245 27.0591 4.8298C27.6775 4.84847 28.2959 4.8298 28.9329 4.8298C28.9916 4.75245 29.0876 4.7138 29.1849 4.67512C29.2263 4.69645 29.2652 4.72239 29.3007 4.75245H30.2071C30.2422 4.89781 30.2489 5.04858 30.2271 5.1965H29.2995C29.2651 5.23362 29.226 5.26631 29.1835 5.29384C29.0876 5.23517 29.0103 5.1965 28.9143 5.13916H27.2337C26.9044 5.23517 26.5566 5.2165 26.2287 5.15783V5.52453H23.4646C23.3564 5.62036 23.2215 5.68085 23.078 5.69788C23.1367 5.98856 22.8089 6.06591 22.6916 6.27927C22.6172 6.38839 22.5091 6.46994 22.3838 6.51128C22.2865 7.11001 22.4996 7.67138 22.6543 8.23145C22.4811 8.27012 22.2865 8.32745 22.1132 8.36612C22.0159 8.75282 21.9199 9.1582 21.8427 9.54489C21.799 9.71802 21.715 9.87837 21.5976 10.0128C21.4802 10.1472 21.3326 10.2519 21.1669 10.3183C20.935 10.589 20.6258 10.8597 20.258 10.8783C20.1233 10.9183 20.0261 10.821 19.9301 10.7437C19.4476 10.7823 19.0025 10.5503 18.5773 10.357C18.1149 10.1436 17.6897 9.87292 17.2446 9.62356C17.2845 9.89292 17.1486 10.125 17.0513 10.357C17.2645 10.453 17.5538 10.5303 17.6697 10.7623C17.747 10.9357 17.8243 11.1304 17.8243 11.3424C17.8056 12.0385 17.7284 12.7345 17.6897 13.4292C17.7084 13.932 17.4578 14.4347 17.11 14.8027C16.878 14.7827 16.6848 14.6854 16.4729 14.5894C16.3956 14.7627 16.221 14.936 16.3183 15.1494C16.3956 15.4014 16.3956 15.6721 16.5115 15.9041C17.174 16.5912 17.7217 17.3805 18.1335 18.2416C18.5387 19.0738 18.8479 19.9432 19.1771 20.8127C19.2344 20.8127 19.3503 20.7927 19.409 20.7927C19.4863 21.0447 19.409 21.3339 19.5636 21.5659C19.6982 21.7794 19.6595 22.0301 19.6595 22.2807C19.6209 22.8608 19.5822 23.4408 19.5249 24.0208C19.4849 24.4263 19.389 24.833 19.3317 25.2383C19.3503 25.5477 19.4863 25.857 19.4663 26.1664C19.4476 26.4557 19.4476 26.7651 19.2157 26.9771C19.2344 27.6346 19.0611 28.2919 19.293 28.9293C19.6022 29.356 19.9501 29.76 20.3166 30.128C20.7218 30.3215 21.2056 30.3602 21.5534 30.7082C21.6867 30.9215 21.6107 31.1709 21.5721 31.4029C20.7453 31.5189 19.9065 31.5189 19.0798 31.4029C18.7519 31.3255 18.4427 31.1909 18.1149 31.1522C17.6697 31.1709 17.1486 31.3455 16.7421 31.0362C16.7048 30.5147 16.898 30.012 16.994 29.5093C17.0326 29.336 17.2072 29.22 17.1872 29.0453C17.1473 28.4453 17.11 27.8279 17.0713 27.2291C16.994 27.1891 16.858 27.1519 16.878 27.0359C16.878 26.7451 16.7821 26.4557 16.7048 26.1851C16.5755 25.4447 16.5042 24.6951 16.4915 23.9435C16.4729 23.7303 16.6075 23.5755 16.7621 23.4408C16.8021 23.1128 16.8394 22.7648 16.8594 22.4354C16.8007 22.2621 16.6661 22.1261 16.5888 21.9714C16.241 22.0114 15.7385 22.0874 15.5266 21.7207C15.0242 20.9672 14.5017 20.1939 14.0006 19.4405C13.7873 19.4205 13.5368 19.4405 13.3435 19.3045C13.1303 19.0725 12.9957 18.7643 12.8597 18.4738C12.8024 18.7058 12.7638 18.9563 12.6278 19.1498C12.5119 19.3431 12.32 19.4791 12.184 19.6525C12.0494 19.9618 11.9335 20.2712 11.8175 20.5805C11.6816 20.9672 11.4883 21.3539 11.4497 21.7794C11.435 21.9845 11.3896 22.1864 11.3151 22.3781C11.2178 22.5327 11.0445 22.5914 10.8899 22.6674C10.7739 22.9194 10.6967 23.1701 10.5234 23.3835C10.4074 23.5181 10.2142 23.5568 10.1369 23.7303C10.0596 23.9623 9.94363 24.1755 9.84633 24.3875C9.80769 24.6195 9.96228 24.8715 9.88632 25.1023C9.75038 25.6824 9.45984 26.2237 9.19062 26.7451C9.05467 27.1319 8.95872 27.5386 8.76412 27.9053C8.68816 28.0599 8.49491 28.0986 8.34032 28.1186C8.16705 28.5426 7.97246 28.9493 7.85785 29.3933C7.80593 29.8229 7.79254 30.2562 7.81787 30.6882C7.81787 30.8815 7.93515 31.0362 8.01244 31.2095C8.08841 31.4415 8.0311 31.6736 7.99246 31.9056C7.23943 32.0029 6.46643 32.0789 5.73207 31.8482C5.65477 31.7896 5.67476 31.6936 5.65477 31.6162C5.59746 31.2682 5.55881 30.9015 5.67476 30.5722C5.92532 29.664 6.13857 28.756 6.38913 27.8479C6.29317 27.7506 6.15723 27.6746 6.15723 27.5186C6.13857 27.2679 6.15723 26.9971 6.21587 26.7451C6.33182 26.3197 6.63969 25.9917 6.79429 25.585C6.85293 25.4117 6.83428 25.2383 6.85293 25.065C6.85293 24.6583 7.08484 24.3303 7.25809 23.9823C7.43135 23.6915 7.56731 23.3821 7.7992 23.1314C7.9538 22.9968 7.9538 22.7848 8.06976 22.6101C8.18571 22.3967 8.37896 22.2234 8.37896 21.9714C8.41761 21.6634 8.30166 21.3539 8.33897 21.0447C8.41761 20.1365 8.5922 19.2471 8.74547 18.3376C8.66817 18.2416 8.55222 18.1456 8.51356 18.0096C8.53356 17.9136 8.55355 17.8363 8.5722 17.7389L8.39896 17.4496C8.47492 17.3336 8.55222 17.1989 8.62952 17.0829C8.55222 17.0242 8.45625 16.9469 8.37896 16.8896C8.47492 16.5989 8.43627 16.1735 8.78412 16.0389C8.82411 16.0575 8.92006 16.0775 8.95739 16.0962C8.90008 15.5948 8.90008 15.0721 8.84276 14.5694C8.71427 14.0317 8.68134 13.4756 8.74547 12.9265C8.93872 12.6372 9.30523 12.5212 9.63443 12.5025C9.20928 12.4051 8.78412 12.3665 8.37896 12.2318C8.35897 11.8838 8.41761 11.5357 8.47492 11.1877C8.64817 10.5116 8.5722 9.81559 8.66817 9.12085C8.76547 8.92617 9.01603 8.88749 9.22793 8.92617C9.47982 8.96617 9.7304 8.88749 9.98228 8.81017C9.98228 8.71415 10.0009 8.59681 9.98228 8.50079C9.82768 7.82474 9.86633 7.12868 9.98228 6.47261C10.1369 5.62188 10.4847 4.79112 11.1218 4.1924C11.547 3.7857 12.1654 3.59235 12.7438 3.61235C12.937 3.61235 13.053 3.8057 13.2076 3.92171C13.2849 3.84437 13.3622 3.76704 13.4208 3.6897C13.3235 3.36034 13.1689 3.01231 13.1889 2.66427C13.2276 1.89087 13.4781 1.09879 14.0579 0.577413Z" fill="currentColor"/>
</g>
<defs>
<clipPath id="clip0_cs2">
<rect width="32" height="32" fill="white"/>
</clipPath>
</defs>
</svg>
