<svg width="32" height="32" viewBox="0 0 32 32" fill="none" xmlns="http://www.w3.org/2000/svg">
<path d="M2.40039 4L5.58875 9.6383L8.80039 4H2.40039Z" fill="currentColor"/>
<path d="M24.3815 13.2106L29.6004 4H21.8331C20.4135 4 19.5815 5.35153 19.5815 5.35153C19.5815 5.35153 12.1517 18.4024 12.1458 18.4024C11.7677 19.1883 11.7677 20.4684 12.1517 21.2066C12.1575 21.2186 15.9975 28 15.9975 28L23.8113 14.2109H19.7793L15.9975 20.8673L15.4273 19.8611L22.4033 7.60804H23.5495L20.3553 13.2106H24.3815Z" fill="currentColor"/>
<path d="M16.5793 8.59638H11.3546L11.9306 7.59018H17.1553L19.1975 4.00595H11.5C10.0338 4.00595 9.17275 5.36343 9.17275 5.36343L6.15894 10.6505L8.17203 14.2049L9.30075 12.2223H14.5197L16.5793 8.60233V8.59638Z" fill="currentColor"/>
</svg>
