<svg xmlns="http://www.w3.org/2000/svg" viewBox="0 0 50 50" width="32" height="32">
<g fill="currentColor">
<path d="M 6.45 41.55 C 8.37 36.90 8.84 34.15 8.02 29.94 C 6.88 24.09 6.86 19.44 10.07 14.24 A 1.42 1.40 9.3 0 1 10.96 13.61 Q 10.98 13.61 11.08 13.59 A 1.46 1.46 0.0 0 0 11.74 13.28 Q 14.22 11.20 15.62 8.78 A 1.78 1.75 -89.1 0 1 16.31 8.10 Q 27.26 2.11 37.68 10.17 A 0.26 0.26 0.0 0 1 37.71 10.56 L 33.64 14.63 A 0.31 0.30 -47.9 0 1 33.23 14.66 C 28.23 10.81 22.18 10.71 17.45 15.15 Q 10.32 21.82 15.68 32.19 A 0.50 0.50 0.0 0 1 15.60 32.77 Q 6.96 41.77 6.80 41.86 A 0.25 0.25 0.0 0 1 6.45 41.55 Z"/>
<path d="M 44.46 7.02 A 0.25 0.25 0.0 0 1 44.81 7.33 C 42.88 11.97 42.41 14.72 43.23 18.93 C 44.36 24.78 44.38 29.42 41.16 34.62 A 1.42 1.40 9.3 0 1 40.27 35.25 Q 40.25 35.25 40.15 35.27 A 1.46 1.46 0.0 0 0 39.49 35.58 Q 37.01 37.65 35.61 40.07 A 1.78 1.75 -89.0 0 1 34.92 40.75 Q 23.97 46.73 13.57 38.66 A 0.26 0.26 0.0 0 1 13.54 38.27 L 17.61 34.21 A 0.31 0.30 -47.8 0 1 18.02 34.18 C 23.01 38.03 29.06 38.14 33.79 33.70 Q 40.92 27.04 35.57 16.67 A 0.50 0.50 0.0 0 1 35.65 16.09 Q 44.30 7.11 44.46 7.02 Z"/>
<path d="M 26.31 14.57 A 0.11 0.11 0.0 0 1 26.48 14.47 C 26.93 14.73 27.32 15.75 28.17 16.09 Q 32.03 17.66 33.76 21.54 A 1.95 1.90 -53.0 0 1 33.90 22.62 Q 33.56 24.58 33.48 25.56 C 33.22 29.07 30.19 31.44 26.87 32.28 A 0.37 0.37 0.0 0 1 26.41 31.92 L 26.42 27.97 A 1.17 1.15 70.8 0 1 26.85 27.07 C 28.98 25.34 29.46 23.28 26.81 21.69 A 1.07 1.06 -74.6 0 1 26.30 20.78 Z"/>
<path d="M 25.15 34.26 C 24.70 34.00 24.30 32.97 23.44 32.63 Q 19.55 31.06 17.79 27.15 A 1.97 1.92 -53.1 0 1 17.65 26.06 Q 17.99 24.08 18.06 23.10 C 18.32 19.56 21.37 17.16 24.71 16.30 A 0.38 0.37 -7.2 0 1 25.18 16.66 L 25.18 20.65 A 1.18 1.16 70.7 0 1 24.75 21.56 C 22.60 23.31 22.12 25.38 24.80 26.98 A 1.07 1.07 0.0 0 1 25.32 27.90 L 25.32 34.16 A 0.11 0.11 0.0 0 1 25.15 34.26 Z"/>
</g>
</svg>
