<svg width="32" height="32" viewBox="0 0 32 32" fill="none" xmlns="http://www.w3.org/2000/svg">
<path d="M5.26903 10.844C4.33277 12.5656 3.7998 14.5377 3.7998 16.6335C3.7998 18.7294 4.33277 20.7034 5.26903 22.426V10.844Z" fill="currentColor"/>
<path d="M15.9989 4.46843C15.0092 4.46843 14.0481 4.58932 13.1271 4.81081V6.72484C14.0396 6.46371 15.0016 6.32153 15.9989 6.32153C21.7099 6.32153 26.3397 10.9233 26.3397 16.6036C26.3397 19.1608 25.3986 21.5004 23.8446 23.2983L23.55 24.3487L22.8959 26.6709C26.0985 24.4793 28.1998 20.803 28.1998 16.6374C28.1979 9.91652 22.7357 4.46939 15.9989 4.46939V4.46843Z" fill="currentColor"/>
<path d="M15.9989 7.40767C14.9958 7.40767 14.0319 7.56919 13.1271 7.86224V22.9482H22.6881C24.2717 21.2973 25.2461 19.0641 25.2461 16.6036C25.2461 11.5249 21.1054 7.40864 15.9979 7.40864L15.9989 7.40767Z" fill="currentColor"/>
<path d="M12.0212 2.80005H5.06023L6.375 5.52168V26.4804L5.06023 29.2H21.0358L22.4831 24.0508H12.0212V2.80005Z" fill="currentColor"/>
</svg>
