<svg width="32" height="32" viewBox="0 0 50 50" fill="currentColor" xmlns="http://www.w3.org/2000/svg">
<path d="M 21.27 2.37 Q 26.58 9.57 29.07 17.07 L 24.86 20.75 A 0.53 0.53 0.0 0 1 24.11 20.70 L 19.40 15.26 A 0.74 0.74 0.0 0 0 18.11 15.66 L 17.51 20.78 A 3.30 3.29 28.0 0 0 18.29 23.32 L 23.78 29.65 A 0.64 0.63 49.1 0 0 24.68 29.72 L 32.70 22.78 A 0.30 0.30 0.0 0 1 33.20 22.98 C 33.66 29.49 33.25 37.34 28.80 42.39 A 0.25 0.25 0.0 0 0 29.08 42.78 Q 35.53 40.10 40.01 35.18 A 1.90 1.88 -27.1 0 0 40.50 33.68 Q 39.47 24.51 40.15 17.02 A 1.74 1.71 -18.4 0 1 40.74 15.87 L 47.91 9.67 A 0.17 0.17 0.0 0 1 48.18 9.85 L 47.18 12.66 A 6.21 6.18 -35.4 0 0 46.82 14.74 L 46.82 36.87 A 4.50 4.48 55.8 0 1 46.51 38.51 Q 43.65 45.98 35.85 48.14 A 3.99 3.94 39.8 0 1 34.30 48.27 Q 20.21 46.79 6.18 48.82 C 4.86 49.01 3.36 49.71 2.30 49.69 A 0.28 0.28 0.0 0 1 2.12 49.20 L 15.95 37.22 A 1.80 1.80 0.0 0 0 16.58 35.69 Q 15.86 26.86 15.85 20.72 Q 15.85 13.46 19.83 8.70 A 0.32 0.32 0.0 0 0 19.42 8.22 L 12.57 12.32 L 9.88 3.34 L 19.18 0.71 A 0.08 0.08 0.0 0 1 19.25 0.85 L 14.95 4.00 A 0.37 0.37 0.0 0 0 15.30 4.65 Z"/>
<path d="M 9.88 3.34 L 12.57 12.32 L 8.83 15.87 A 1.10 1.09 64.7 0 0 8.50 16.80 Q 9.54 25.50 8.98 33.83 A 1.63 1.61 -19.0 0 1 8.42 34.96 L 1.59 40.87 A 0.19 0.19 0.0 0 1 1.29 40.68 L 1.97 38.22 A 8.54 8.33 53.5 0 0 2.28 35.95 L 2.28 13.85 A 2.54 2.28 57.8 0 1 2.42 13.03 Q 4.50 7.19 9.88 3.34 Z"/>
<path d="M 29.07 17.07 Q 26.58 9.57 21.27 2.37 Q 35.14 5.45 47.11 1.15 A 0.12 0.11 13.9 0 1 47.23 1.34 Z"/>
</svg>
