<svg width="32" height="32" viewBox="0 0 32 32" fill="none" xmlns="http://www.w3.org/2000/svg">
<path d="M17.0502 20.0605L16.8513 19.707H16.5234L16.5322 20.0397C16.5322 20.0397 16.8689 20.0991 16.9098 20.3129L16.7839 20.4347C16.7868 20.4317 16.4238 19.8793 15.6306 20.604V22.0148H17.0502V20.0605Z" fill="currentColor"/>
<path d="M23.1998 9.83148V6.02377C23.1998 6.02377 23.1851 0.930005 16.0901 1.2181C16.0871 1.2181 9.3433 0.638933 8.80186 6.02377V26.1138C8.80186 26.1138 8.48288 30.9194 15.7944 30.7561C15.7944 30.7561 22.3714 31.5609 23.1998 26.2741V13.5056C23.1998 13.5056 22.6905 10.8948 18.2092 10.8948C18.2092 10.8948 15.1271 10.8296 14.969 11.8304L14.9369 6.79905C14.9369 6.79905 15.9233 5.67034 17.1935 6.83165L17.1615 9.83148H23.1998ZM15.4754 16.8589C15.8822 18.0588 17.8083 16.9896 17.8083 16.9896C19.4942 15.8193 20.2201 16.8677 20.2201 16.8677V19.1607C18.2678 19.1607 17.2141 19.7102 17.2141 19.7102V22.2169C16.0022 22.0625 15.4783 22.7604 15.4783 22.7604V27.5573H15.2851V27.7592H13.8363V27.578H13.3533V27.082H13.5377V17.8598L13.5319 17.7321H13.3563V17.3579H13.5289V17.0193H13.886V16.8589H15.4754Z" fill="currentColor"/>
</svg>
