<svg width="32" height="32" viewBox="0 0 32 32" fill="none" xmlns="http://www.w3.org/2000/svg">
<path d="M5.4364 2C3.3204 2 1.59961 3.73951 1.59961 5.87843C1.59961 8.01663 3.3204 9.75679 5.4364 9.75679C7.5524 9.75679 9.27446 8.01663 9.27446 5.87843C9.27446 3.73951 7.5524 2 5.4364 2ZM16.3168 3.3793C14.046 3.39763 12.0143 3.57922 10.184 3.91236C10.4314 4.51973 10.5699 5.18201 10.5699 5.87843C10.5699 6.9531 10.2445 7.95347 9.68812 8.78272C9.72372 8.78662 9.78027 8.79788 9.81586 8.83385C9.81586 8.56417 9.97526 8.56411 9.97526 8.56411C9.97526 8.56411 9.97532 8.50914 10.0284 8.50914C10.2953 8.56347 11.0436 8.94066 11.3643 9.10231C11.6848 9.26396 11.6856 9.31836 11.6856 9.31836C11.6856 9.31836 12.4333 9.319 12.647 9.26466C12.8607 9.26466 13.2347 9.10225 13.7691 8.93995C14.3034 8.7783 14.4098 8.72519 14.5167 8.72519C14.6235 8.72519 15.5858 8.77894 16.4408 8.88626C17.2957 8.99429 18.0967 9.31772 18.2573 9.42574L18.5242 9.47937L18.5774 9.31836L18.1498 9.156C18.1498 9.156 18.2042 8.8869 18.2042 8.83257C18.2042 8.77888 18.2567 8.72519 18.3104 8.72519C18.3636 8.72519 18.845 8.83257 19.005 8.88626C19.1649 8.94059 19.7001 9.31836 19.7538 9.31836C19.8076 9.31836 19.807 9.37205 19.807 9.37205C19.807 9.48001 19.7007 9.69542 19.7007 9.69542C19.7007 9.69542 19.8607 9.74975 19.9145 9.80408C19.9683 9.85777 20.1277 9.96522 20.2877 10.1275C20.4477 10.2355 20.3939 10.3972 20.3939 10.3972L20.7684 10.7756V10.9367L21.6766 11.8545V11.9082L21.2491 12.1779C21.2491 12.1779 21.8362 12.1236 22.2636 12.339C22.6911 12.555 22.7443 12.6631 22.7443 12.771C22.6375 12.8247 22.4774 12.8797 22.4774 12.8797C22.1568 12.9877 21.3554 13.5278 21.3554 13.5278V13.5815L21.7829 13.6889C22.2635 13.2569 23.1189 13.0952 23.7601 13.2031C25.2712 13.5009 26.4465 14.2919 27.1441 15.1538C27.6816 15.8181 28.0901 16.4373 28.3661 16.9C30.2988 11.6464 29.9836 7.04941 29.9764 6.96494L29.9499 6.64541L29.6855 6.47025C26.6181 4.43543 22.3786 3.42511 16.7191 3.3793H16.3168ZM9.92213 8.72519C9.92213 8.72519 9.86969 8.88633 9.86899 9.10231C10.7239 9.21027 10.8835 9.37205 10.8835 9.37205C10.8835 9.37205 11.2043 9.31836 11.3643 9.31836C11.098 9.10237 9.92213 8.72519 9.92213 8.72519ZM14.1435 8.83257C14.0904 8.83321 12.7014 9.31836 12.7014 9.31836C12.7014 9.31836 13.0752 9.53434 13.1289 9.53434C13.1821 9.53434 13.9304 9.80478 14.251 9.91274C14.5179 10.0208 14.6786 9.91274 14.7317 9.91274C14.7855 9.91274 15.6932 9.37205 15.6932 9.37205C14.892 9.04804 14.1435 8.83257 14.1435 8.83257ZM7.92465 10.4151C7.18762 10.8294 6.33926 11.0671 5.43767 11.0671C4.63453 11.0671 3.87607 10.8748 3.19859 10.5404C3.31647 11.6275 3.51812 12.8985 3.86399 14.2782C4.10363 15.2337 4.81458 15.995 5.73494 16.3222C6.75635 16.6848 7.99178 16.9673 9.06952 17.1492C14.0477 17.9523 18.8606 21.1385 20.5116 23.9345C20.5116 23.9345 20.696 24.2745 20.762 24.4165C21.1565 25.2143 21.3523 26.01 21.3224 26.7148C24.0596 24.5766 25.9425 22.0469 27.2301 19.5205C27.0772 18.1657 25.6692 17.9035 25.0973 17.9035C23.9754 17.9035 22.8523 17.5268 22.0511 16.5549V16.6085C21.5705 17.2565 21.0365 17.2566 20.8228 17.2566C20.609 17.2566 19.9151 16.9325 19.6476 16.6085C19.3807 16.2845 19.3806 15.6907 19.3806 15.6907L18.3117 15.3136L16.9759 14.5569L16.7621 14.5032C16.3346 14.7192 15.8006 14.558 15.32 14.1797C15.2662 14.3957 14.9992 14.9353 14.6786 15.2049C14.358 15.4746 13.7171 15.8531 13.2365 15.8531C12.7559 15.8531 11.6874 15.3128 11.3668 14.5569C11.0462 13.8009 11.3668 12.9909 11.3668 12.9909L10.8317 12.8835L10.6179 12.6138C10.6179 12.6138 9.9776 13.1532 9.28332 12.9372C8.58898 12.7212 7.99989 12.1286 7.83992 11.5886C7.73308 11.0487 7.89368 10.5627 7.94745 10.5084C7.93707 10.4724 7.93308 10.4479 7.92465 10.4151Z" fill="currentColor"/>
</svg>
