<svg width="32" height="32" viewBox="0 0 32 32" fill="none" xmlns="http://www.w3.org/2000/svg">
<path d="M28.8002 15.4128V5.75643C28.8002 5.60749 28.6082 5.54543 28.5058 5.65714L17.6313 18.8384C17.5418 18.9377 17.6186 19.0991 17.7593 19.0991H25.6146C25.832 19.0991 26.024 18.9998 26.1519 18.8384L28.6337 15.8348C28.7361 15.7231 28.8002 15.5741 28.8002 15.4128ZM3.36651 15.8472L11.5288 25.7517C11.6567 25.913 11.8614 26 12.0789 26H19.9342C20.0749 26 20.1517 25.8511 20.0621 25.7517L3.49445 5.66955C3.3921 5.55784 3.2002 5.6199 3.2002 5.76884V15.4252C3.21299 15.5741 3.26416 15.7231 3.36651 15.8472Z" fill="currentcolor"/>
</svg>
